# xmcd
#
# Track frame offsets:
#	150
#	19536
#	61737
#	87832
#	119561
#	147250
#	192143
#	218314
#
# Disc length: 3137 seconds
#
# Revision: 1
# Processed by: cddbd v1.5.1PL0 Copyright (c) Steve Scherf et al.
# Submitted via: audiograbber 1.82.01
#
DISCID=610c3f08
DTITLE=Albert Collins And Buddy Guy - 1993-04-09 - The Warner Theater,Washingto
DTITLE=n, DC - Disc 1
DYEAR=1900
DGENRE=
TTITLE0=Albert Collins And Buddy Guy - Trying To Work My Way Back Home
TTITLE1=Albert Collins And Buddy Guy - If Trouble Was Money
TTITLE2=Albert Collins And Buddy Guy - Put Your Shoe On The Wrong Foot
TTITLE3=Albert Collins And Buddy Guy - Same Old Thing
TTITLE4=Albert Collins And Buddy Guy - Things I Used To Do
TTITLE5=Albert Collins And Buddy Guy - Head Rag
TTITLE6=Albert Collins And Buddy Guy - I Ain'T Drunk
TTITLE7=Albert Collins And Buddy Guy - You Talk Too Much
EXTD=
EXTT0=
EXTT1=
EXTT2=
EXTT3=
EXTT4=
EXTT5=
EXTT6=
EXTT7=
PLAYORDER=
